<svg xmlns="http://www.w3.org/2000/svg" viewBox="0 0 1440 1320" width="1440" height="1320" font-family="ui-sans-serif, system-ui, -apple-system, 'Syne', sans-serif">
  <defs>
    <style>
      .serif { font-family: Georgia, 'DM Serif Display', 'Times New Roman', serif; }
      .mono  { font-family: ui-monospace, SFMono-Regular, Menlo, 'DM Mono', Consolas, monospace; }
      .sans  { font-family: ui-sans-serif, system-ui, -apple-system, 'Syne', sans-serif; }
    </style>
    <linearGradient id="headlineGrad" x1="0" y1="0" x2="0" y2="1">
      <stop offset="0%" stop-color="#e8ebe6"/>
      <stop offset="100%" stop-color="#b8bcb6"/>
    </linearGradient>
    <pattern id="noise" width="256" height="256" patternUnits="userSpaceOnUse">
      <rect width="256" height="256" fill="#0d0f0e"/>
    </pattern>
  </defs>

  <!-- Background -->
  <rect width="1440" height="1320" fill="#0d0f0e"/>
  <rect width="1440" height="1320" fill="url(#noise)" opacity="0.4"/>

  <!-- ============ HEADER ============ -->
  <g>
    <text x="60" y="95" class="mono" font-size="11" fill="#5a5e58" letter-spacing="3">CMO · PERFORMANCE</text>
    <text x="60" y="160" class="serif" font-size="56" fill="url(#headlineGrad)">
      The Quarter in<tspan font-style="italic" fill="#8a9088">&#160;Motion</tspan>
    </text>
    <text x="60" y="198" class="sans" font-size="14" fill="#8a9088">A read on pipeline, acquisition, and channel health.  ·  Mock data · POC.</text>

    <!-- Time-range pills -->
    <g transform="translate(895,110)">
      <rect x="0"   y="0" width="120" height="34" rx="17" fill="#141714" stroke="rgba(255,255,255,0.07)"/>
      <text x="60" y="22" class="mono" font-size="11" fill="#8a9088" text-anchor="middle" letter-spacing="2">WEEK</text>
      <rect x="130" y="0" width="120" height="34" rx="17" fill="#141714" stroke="rgba(255,255,255,0.07)"/>
      <text x="190" y="22" class="mono" font-size="11" fill="#8a9088" text-anchor="middle" letter-spacing="2">MONTH</text>
      <rect x="260" y="0" width="120" height="34" rx="17" fill="#1a1d1a" stroke="#4caf7d" stroke-opacity="0.6"/>
      <text x="320" y="22" class="mono" font-size="11" fill="#e8ebe6" text-anchor="middle" letter-spacing="2">QTD</text>
      <rect x="390" y="0" width="95"  height="34" rx="17" fill="#141714" stroke="rgba(255,255,255,0.07)"/>
      <text x="437" y="22" class="mono" font-size="11" fill="#8a9088" text-anchor="middle" letter-spacing="2">YTD</text>
    </g>
  </g>

  <!-- Thin divider -->
  <line x1="60" y1="240" x2="1380" y2="240" stroke="rgba(255,255,255,0.07)"/>

  <!-- ============ KPI STRIP ============ -->
  <g transform="translate(60,270)">
    <!-- Tile 1: Pipeline Created -->
    <g transform="translate(0,0)">
      <rect width="315" height="200" rx="14" fill="#141714" stroke="rgba(255,255,255,0.07)"/>
      <text x="22" y="34" class="mono" font-size="10" fill="#5a5e58" letter-spacing="2.4">PIPELINE CREATED</text>
      <text x="22" y="96" class="serif" font-size="48" fill="#e8ebe6">$4.28M</text>
      <g transform="translate(22,118)">
        <polygon points="0,6 5,0 10,6" fill="#4caf7d"/>
        <text x="16" y="8" class="mono" font-size="12" fill="#4caf7d">18% QoQ</text>
        <text x="96" y="8" class="mono" font-size="11" fill="#5a5e58">vs $3.63M</text>
      </g>
      <!-- Sparkline -->
      <polyline points="22,178 52,172 82,174 112,164 142,168 172,156 202,150 232,154 262,140 293,128" fill="none" stroke="#4caf7d" stroke-width="1.6" stroke-linejoin="round" stroke-linecap="round"/>
      <circle cx="293" cy="128" r="2.5" fill="#4caf7d"/>
    </g>

    <!-- Tile 2: Win Rate -->
    <g transform="translate(335,0)">
      <rect width="315" height="200" rx="14" fill="#141714" stroke="rgba(255,255,255,0.07)"/>
      <text x="22" y="34" class="mono" font-size="10" fill="#5a5e58" letter-spacing="2.4">WIN RATE</text>
      <text x="22" y="96" class="serif" font-size="48" fill="#e8ebe6">26.4%</text>
      <g transform="translate(22,118)">
        <polygon points="0,6 5,0 10,6" fill="#4caf7d"/>
        <text x="16" y="8" class="mono" font-size="12" fill="#4caf7d">+1.8 pp</text>
        <text x="92" y="8" class="mono" font-size="11" fill="#5a5e58">vs 24.6%</text>
      </g>
      <polyline points="22,170 52,168 82,162 112,164 142,156 172,152 202,150 232,144 262,140 293,136" fill="none" stroke="#4caf7d" stroke-width="1.6" stroke-linejoin="round" stroke-linecap="round"/>
      <circle cx="293" cy="136" r="2.5" fill="#4caf7d"/>
    </g>

    <!-- Tile 3: MQL → SQL -->
    <g transform="translate(670,0)">
      <rect width="315" height="200" rx="14" fill="#141714" stroke="rgba(255,255,255,0.07)"/>
      <text x="22" y="34" class="mono" font-size="10" fill="#5a5e58" letter-spacing="2.4">MQL &#8594; SQL</text>
      <text x="22" y="96" class="serif" font-size="48" fill="#e8ebe6">34%</text>
      <g transform="translate(22,118)">
        <polygon points="0,0 5,6 10,0" fill="#d47878"/>
        <text x="16" y="8" class="mono" font-size="12" fill="#d47878">&#8722;2.1 pp</text>
        <text x="96" y="8" class="mono" font-size="11" fill="#5a5e58">vs 36.1%</text>
      </g>
      <polyline points="22,140 52,144 82,140 112,148 142,146 172,154 202,158 232,156 262,164 293,170" fill="none" stroke="#d47878" stroke-width="1.6" stroke-linejoin="round" stroke-linecap="round"/>
      <circle cx="293" cy="170" r="2.5" fill="#d47878"/>
    </g>

    <!-- Tile 4: CAC Payback -->
    <g transform="translate(1005,0)">
      <rect width="315" height="200" rx="14" fill="#141714" stroke="rgba(255,255,255,0.07)"/>
      <text x="22" y="34" class="mono" font-size="10" fill="#5a5e58" letter-spacing="2.4">CAC PAYBACK</text>
      <text x="22" y="96" class="serif" font-size="48" fill="#e8ebe6">11.2<tspan font-size="22" fill="#8a9088">&#160;mo</tspan></text>
      <g transform="translate(22,118)">
        <polygon points="0,0 5,6 10,0" fill="#4caf7d"/>
        <text x="16" y="8" class="mono" font-size="12" fill="#4caf7d">&#8722;0.4 mo</text>
        <text x="100" y="8" class="mono" font-size="11" fill="#5a5e58">vs 11.6 mo</text>
      </g>
      <polyline points="22,140 52,146 82,150 112,148 142,156 172,158 202,164 232,162 262,170 293,174" fill="none" stroke="#4caf7d" stroke-width="1.6" stroke-linejoin="round" stroke-linecap="round"/>
      <circle cx="293" cy="174" r="2.5" fill="#4caf7d"/>
    </g>
  </g>

  <!-- Section label -->
  <g transform="translate(60,505)">
    <circle cx="4" cy="-4" r="4" fill="#4caf7d">
      <animate attributeName="opacity" values="1;0.3;1" dur="2s" repeatCount="indefinite"/>
    </circle>
    <text x="18" y="0" class="mono" font-size="11" fill="#8a9088" letter-spacing="2.4">LIVE  ·  SOURCES CONNECTED</text>
    <text x="1320" y="0" class="mono" font-size="11" fill="#5a5e58" text-anchor="end" letter-spacing="1.6">4 OF 7 CHANNELS</text>
  </g>

  <!-- ============ LIVE CHANNELS — ROW 1 ============ -->
  <g transform="translate(60,530)">
    <!-- Card: Outbound Calling -->
    <g transform="translate(0,0)">
      <rect width="650" height="220" rx="14" fill="#141714" stroke="rgba(255,255,255,0.07)"/>
      <text x="24" y="42" class="serif" font-size="24" fill="#e8ebe6">Outbound Calling</text>
      <!-- tag pill -->
      <g transform="translate(540,22)">
        <rect width="88" height="24" rx="12" fill="#1a1d1a" stroke="#4caf7d" stroke-opacity="0.4"/>
        <circle cx="12" cy="12" r="3" fill="#4caf7d"/>
        <text x="22" y="16" class="mono" font-size="10" fill="#4caf7d" letter-spacing="1.4">AIRCALL</text>
      </g>
      <text x="24" y="62" class="sans" font-size="12" fill="#5a5e58">This week · Mon–Fri</text>

      <!-- Metric trio -->
      <g transform="translate(24,92)">
        <text class="mono" font-size="10" fill="#5a5e58" letter-spacing="1.6">CALLS</text>
        <text y="36" class="serif" font-size="30" fill="#e8ebe6">1,284</text>
      </g>
      <g transform="translate(168,92)">
        <text class="mono" font-size="10" fill="#5a5e58" letter-spacing="1.6">CONNECT RATE</text>
        <text y="36" class="serif" font-size="30" fill="#e8ebe6">31<tspan font-size="18" fill="#8a9088">%</tspan></text>
      </g>
      <g transform="translate(312,92)">
        <text class="mono" font-size="10" fill="#5a5e58" letter-spacing="1.6">MEETINGS BOOKED</text>
        <text y="36" class="serif" font-size="30" fill="#4caf7d">47</text>
      </g>

      <!-- Horizontal bars per rep -->
      <g transform="translate(24,150)">
        <text class="mono" font-size="9" fill="#5a5e58" letter-spacing="1.4">BY REP · CONNECT %</text>
        <g transform="translate(0,14)">
          <text y="9" class="sans" font-size="11" fill="#8a9088">M. Soren</text>
          <rect x="78" y="0" width="180" height="10" rx="2" fill="#1a1d1a"/>
          <rect x="78" y="0" width="142" height="10" rx="2" fill="#4caf7d"/>
          <text x="472" y="9" class="mono" font-size="11" fill="#e8ebe6" text-anchor="end">38%</text>
        </g>
        <g transform="translate(0,30)">
          <text y="9" class="sans" font-size="11" fill="#8a9088">J. Park</text>
          <rect x="78" y="0" width="180" height="10" rx="2" fill="#1a1d1a"/>
          <rect x="78" y="0" width="110" height="10" rx="2" fill="#4caf7d"/>
          <text x="472" y="9" class="mono" font-size="11" fill="#e8ebe6" text-anchor="end">29%</text>
        </g>
        <g transform="translate(0,46)">
          <text y="9" class="sans" font-size="11" fill="#8a9088">R. Adeyemi</text>
          <rect x="78" y="0" width="180" height="10" rx="2" fill="#1a1d1a"/>
          <rect x="78" y="0" width="92" height="10" rx="2" fill="#4caf7d" opacity="0.7"/>
          <text x="472" y="9" class="mono" font-size="11" fill="#e8ebe6" text-anchor="end">24%</text>
        </g>
      </g>
    </g>

    <!-- Card: Pipeline & Deals -->
    <g transform="translate(670,0)">
      <rect width="650" height="220" rx="14" fill="#141714" stroke="rgba(255,255,255,0.07)"/>
      <text x="24" y="42" class="serif" font-size="24" fill="#e8ebe6">Pipeline &amp; Deals</text>
      <g transform="translate(480,22)">
        <rect width="148" height="24" rx="12" fill="#1a1d1a" stroke="#d4a843" stroke-opacity="0.4"/>
        <circle cx="12" cy="12" r="3" fill="#d4a843"/>
        <text x="22" y="16" class="mono" font-size="10" fill="#d4a843" letter-spacing="1.4">COEFFICIENT · CRM</text>
      </g>
      <text x="24" y="62" class="sans" font-size="12" fill="#5a5e58">Open pipeline  ·  Refreshed 12m ago</text>

      <g transform="translate(24,92)">
        <text class="mono" font-size="10" fill="#5a5e58" letter-spacing="1.6">OPEN DEALS</text>
        <text y="36" class="serif" font-size="30" fill="#e8ebe6">142</text>
      </g>
      <g transform="translate(168,92)">
        <text class="mono" font-size="10" fill="#5a5e58" letter-spacing="1.6">AVG DEAL SIZE</text>
        <text y="36" class="serif" font-size="30" fill="#e8ebe6">$31<tspan font-size="18" fill="#8a9088">K</tspan></text>
      </g>
      <g transform="translate(312,92)">
        <text class="mono" font-size="10" fill="#5a5e58" letter-spacing="1.6">WEIGHTED</text>
        <text y="36" class="serif" font-size="30" fill="#e8ebe6">$1.87<tspan font-size="18" fill="#8a9088">M</tspan></text>
      </g>

      <!-- Stacked stage-mix bar -->
      <g transform="translate(24,160)">
        <text class="mono" font-size="9" fill="#5a5e58" letter-spacing="1.4">STAGE MIX</text>
        <g transform="translate(0,10)">
          <rect x="0"   y="0" width="140" height="14" rx="2" fill="#5b9cf6"/>
          <rect x="142" y="0" width="170" height="14" fill="#4caf7d"/>
          <rect x="314" y="0" width="130" height="14" fill="#d4a843"/>
          <rect x="446" y="0" width="80"  height="14" fill="#e08a4e"/>
          <rect x="528" y="0" width="74"  height="14" rx="2" fill="#8a9088" opacity="0.4"/>
        </g>
        <g transform="translate(0,42)" class="mono" font-size="10" fill="#8a9088">
          <g><circle cx="4" cy="-3" r="3" fill="#5b9cf6"/><text x="12" y="0">Discovery 23%</text></g>
          <g transform="translate(132,0)"><circle cx="4" cy="-3" r="3" fill="#4caf7d"/><text x="12" y="0">Eval 28%</text></g>
          <g transform="translate(230,0)"><circle cx="4" cy="-3" r="3" fill="#d4a843"/><text x="12" y="0">Proposal 22%</text></g>
          <g transform="translate(346,0)"><circle cx="4" cy="-3" r="3" fill="#e08a4e"/><text x="12" y="0">Neg 13%</text></g>
          <g transform="translate(444,0)"><circle cx="4" cy="-3" r="3" fill="#8a9088" opacity="0.6"/><text x="12" y="0">Closed 14%</text></g>
        </g>
      </g>
    </g>
  </g>

  <!-- ============ LIVE CHANNELS — ROW 2 ============ -->
  <g transform="translate(60,770)">
    <!-- Card: Web & Conversion -->
    <g transform="translate(0,0)">
      <rect width="650" height="220" rx="14" fill="#141714" stroke="rgba(255,255,255,0.07)"/>
      <text x="24" y="42" class="serif" font-size="24" fill="#e8ebe6">Web &amp; Conversion</text>
      <g transform="translate(484,22)">
        <rect width="144" height="24" rx="12" fill="#1a1d1a" stroke="#5b9cf6" stroke-opacity="0.4"/>
        <circle cx="12" cy="12" r="3" fill="#5b9cf6"/>
        <text x="22" y="16" class="mono" font-size="10" fill="#5b9cf6" letter-spacing="1.4">COEFFICIENT · GA4</text>
      </g>
      <text x="24" y="62" class="sans" font-size="12" fill="#5a5e58">Last 30 days  ·  All properties</text>

      <g transform="translate(24,92)">
        <text class="mono" font-size="10" fill="#5a5e58" letter-spacing="1.6">SESSIONS</text>
        <text y="36" class="serif" font-size="30" fill="#e8ebe6">48.2<tspan font-size="18" fill="#8a9088">K</tspan></text>
      </g>
      <g transform="translate(168,92)">
        <text class="mono" font-size="10" fill="#5a5e58" letter-spacing="1.6">CONV RATE</text>
        <text y="36" class="serif" font-size="30" fill="#e8ebe6">3.4<tspan font-size="18" fill="#8a9088">%</tspan></text>
      </g>
      <g transform="translate(312,92)">
        <text class="mono" font-size="10" fill="#5a5e58" letter-spacing="1.6">DEMO REQUESTS</text>
        <text y="36" class="serif" font-size="30" fill="#5b9cf6">218</text>
      </g>

      <!-- Sparkline wide -->
      <g transform="translate(24,158)">
        <text class="mono" font-size="9" fill="#5a5e58" letter-spacing="1.4">SESSIONS · 30D</text>
        <polyline
          points="0,38 20,34 40,36 60,30 80,32 100,28 120,26 140,30 160,24 180,22 200,20 220,16 240,20 260,14 280,18 300,10 320,14 340,8 360,12 380,6 400,10 420,4 440,8 460,2 480,6 500,0 520,4 540,2 560,6"
          fill="none" stroke="#5b9cf6" stroke-width="1.6" stroke-linejoin="round" stroke-linecap="round"/>
        <circle cx="560" cy="6" r="3" fill="#5b9cf6"/>
        <text x="600" y="24" class="mono" font-size="11" fill="#8a9088" text-anchor="end">+22%</text>
      </g>
    </g>

    <!-- Card: Paid Acquisition -->
    <g transform="translate(670,0)">
      <rect width="650" height="220" rx="14" fill="#141714" stroke="rgba(255,255,255,0.07)"/>
      <text x="24" y="42" class="serif" font-size="24" fill="#e8ebe6">Paid Acquisition</text>
      <g transform="translate(480,22)">
        <rect width="148" height="24" rx="12" fill="#1a1d1a" stroke="#e08a4e" stroke-opacity="0.4"/>
        <circle cx="12" cy="12" r="3" fill="#e08a4e"/>
        <text x="22" y="16" class="mono" font-size="10" fill="#e08a4e" letter-spacing="1.4">COEFFICIENT · ADS</text>
      </g>
      <text x="24" y="62" class="sans" font-size="12" fill="#5a5e58">Google + LinkedIn  ·  MTD</text>

      <g transform="translate(24,92)">
        <text class="mono" font-size="10" fill="#5a5e58" letter-spacing="1.6">SPEND</text>
        <text y="36" class="serif" font-size="30" fill="#e8ebe6">$82<tspan font-size="18" fill="#8a9088">K</tspan></text>
      </g>
      <g transform="translate(168,92)">
        <text class="mono" font-size="10" fill="#5a5e58" letter-spacing="1.6">CPL</text>
        <text y="36" class="serif" font-size="30" fill="#e8ebe6">$148</text>
      </g>
      <g transform="translate(312,92)">
        <text class="mono" font-size="10" fill="#5a5e58" letter-spacing="1.6">ROAS</text>
        <text y="36" class="serif" font-size="30" fill="#4caf7d">3.2<tspan font-size="18" fill="#8a9088">×</tspan></text>
      </g>

      <!-- Spend vs CPL dual sparkline -->
      <g transform="translate(24,158)">
        <text class="mono" font-size="9" fill="#5a5e58" letter-spacing="1.4">SPEND  ·  CPL</text>
        <polyline
          points="0,30 28,28 56,32 84,26 112,28 140,22 168,24 196,20 224,22 252,18 280,16 308,18 336,14 364,16 392,12 420,14 448,10 476,12 504,8 532,10 560,6"
          fill="none" stroke="#e08a4e" stroke-width="1.6" stroke-linejoin="round" stroke-linecap="round"/>
        <polyline
          points="0,20 28,22 56,18 84,22 112,20 140,24 168,22 196,26 224,24 252,28 280,26 308,30 336,28 364,32 392,30 420,34 448,32 476,36 504,34 532,38 560,36"
          fill="none" stroke="#8a9088" stroke-width="1.4" stroke-linejoin="round" stroke-linecap="round" stroke-dasharray="2 3" opacity="0.8"/>
        <circle cx="560" cy="6" r="3" fill="#e08a4e"/>
        <text x="600" y="24" class="mono" font-size="11" fill="#4caf7d" text-anchor="end">ROAS ▲</text>
      </g>
    </g>
  </g>

  <!-- Section label: Coming soon -->
  <g transform="translate(60,1025)">
    <circle cx="4" cy="-4" r="4" fill="#5a5e58"/>
    <text x="18" y="0" class="mono" font-size="11" fill="#5a5e58" letter-spacing="2.4">ROADMAP  ·  AWAITING SOURCE</text>
    <text x="1320" y="0" class="mono" font-size="11" fill="#5a5e58" text-anchor="end" letter-spacing="1.6">3 CHANNELS</text>
  </g>

  <!-- ============ COMING SOON ============ -->
  <g transform="translate(60,1050)" opacity="0.55">
    <!-- Social -->
    <g transform="translate(0,0)">
      <rect width="426" height="150" rx="14" fill="#141714" stroke="rgba(255,255,255,0.12)" stroke-dasharray="4 5"/>
      <text x="22" y="40" class="serif" font-size="22" fill="#8a9088">Social</text>
      <g transform="translate(330,18)">
        <rect width="78" height="22" rx="11" fill="#1a1d1a" stroke="rgba(255,255,255,0.07)"/>
        <text x="39" y="15" class="mono" font-size="9" fill="#5a5e58" text-anchor="middle" letter-spacing="1.6">SOON</text>
      </g>
      <text x="22" y="68" class="sans" font-size="12" fill="#5a5e58">Org + paid social — waiting on source.</text>
      <g transform="translate(22,100)">
        <rect width="90" height="6" rx="3" fill="#2a2d2a"/>
        <rect x="100" width="56" height="6" rx="3" fill="#2a2d2a"/>
        <rect x="166" width="72" height="6" rx="3" fill="#2a2d2a"/>
        <text y="28" class="mono" font-size="10" fill="#5a5e58" letter-spacing="1.4">LINKEDIN · X · YOUTUBE</text>
      </g>
    </g>
    <!-- Email -->
    <g transform="translate(447,0)">
      <rect width="426" height="150" rx="14" fill="#141714" stroke="rgba(255,255,255,0.12)" stroke-dasharray="4 5"/>
      <text x="22" y="40" class="serif" font-size="22" fill="#8a9088">Email</text>
      <g transform="translate(330,18)">
        <rect width="78" height="22" rx="11" fill="#1a1d1a" stroke="rgba(255,255,255,0.07)"/>
        <text x="39" y="15" class="mono" font-size="9" fill="#5a5e58" text-anchor="middle" letter-spacing="1.6">SOON</text>
      </g>
      <text x="22" y="68" class="sans" font-size="12" fill="#5a5e58">Lifecycle + broadcast — waiting on source.</text>
      <g transform="translate(22,100)">
        <rect width="120" height="6" rx="3" fill="#2a2d2a"/>
        <rect x="130" width="40" height="6" rx="3" fill="#2a2d2a"/>
        <rect x="180" width="80" height="6" rx="3" fill="#2a2d2a"/>
        <text y="28" class="mono" font-size="10" fill="#5a5e58" letter-spacing="1.4">OPEN · CTR · REPLY</text>
      </g>
    </g>
    <!-- Content -->
    <g transform="translate(894,0)">
      <rect width="426" height="150" rx="14" fill="#141714" stroke="rgba(255,255,255,0.12)" stroke-dasharray="4 5"/>
      <text x="22" y="40" class="serif" font-size="22" fill="#8a9088">Content</text>
      <g transform="translate(330,18)">
        <rect width="78" height="22" rx="11" fill="#1a1d1a" stroke="rgba(255,255,255,0.07)"/>
        <text x="39" y="15" class="mono" font-size="9" fill="#5a5e58" text-anchor="middle" letter-spacing="1.6">SOON</text>
      </g>
      <text x="22" y="68" class="sans" font-size="12" fill="#5a5e58">Publishing cadence + engagement — waiting on source.</text>
      <g transform="translate(22,100)">
        <rect width="60" height="6" rx="3" fill="#2a2d2a"/>
        <rect x="70"  width="100" height="6" rx="3" fill="#2a2d2a"/>
        <rect x="180" width="48" height="6" rx="3" fill="#2a2d2a"/>
        <text y="28" class="mono" font-size="10" fill="#5a5e58" letter-spacing="1.4">POSTS · VIEWS · SHARES</text>
      </g>
    </g>
  </g>

  <!-- Footer -->
  <line x1="60" y1="1240" x2="1380" y2="1240" stroke="rgba(255,255,255,0.07)"/>
  <text x="60" y="1272" class="mono" font-size="10" fill="#5a5e58" letter-spacing="1.6">MOCK DATA  ·  POC  ·  APR 2026</text>
  <text x="1380" y="1272" class="mono" font-size="10" fill="#5a5e58" letter-spacing="1.6" text-anchor="end">CMO PLATFORM · v0.1</text>
</svg>
